:SAMPLES-PER-SECOND 30
:FULLY-SPECIFIED
:DEGREES
132
root  -3.32451 40.8992 0.0199162 174.252 -70.1586 -175.166
RightUpLeg  1.46671 0.797395 1.24759
RightLeg  -0.533464 -5.4498 0.654571
RightFoot  1.00274 -0.159503 1.53827
RightToes  -3.10678e-008 1.75238e-005 3.56266e-009
Spine  0.131957 -4.08706 -10.6097
Spine1  2.09089 -6.71091 13.7664
HEad  -10.7312 -12.7357 2.83907
LeftShoulder1  2.25016 -4.16148 -23.0831
LeftArm  -17.703 -15.7573 -43.8999
LeftForeArm  115.37 -79.7722 -107.919
LeftHand  -0.603831 -3.80106 7.85332
RightShoulder  2.66006 5.06178 24.9839
RightArm  -9.16297 -15.0028 39.5803
RightForeArm  79.9568 79.6572 84.0021
RightHand  -0.0749352 7.84427 -1.0265
LeftUpLeg  6.20063 3.6956 3.58752
LeftLeg  -1.17416 33.9366 -1.60468
LeftFoot  -1.87131 0.346344 -4.04306
LeftToes  4.7643e-008 1.47522e-008 1.32869e-009
133
root  -3.27075 40.8968 0.139365 174.497 -68.0551 -175.228
RightUpLeg  1.01121 1.12204 1.36031
RightLeg  -0.65985 -3.82549 0.526422
RightFoot  1.37485 -0.183329 1.72759
RightToes  -3.10678e-008 1.75238e-005 3.56266e-009
Spine  0.854331 -5.31569 -11.8515
Spine1  1.73257 -8.12577 14.6487
HEad  -11.2148 -14.0284 2.78855
LeftShoulder1  2.1095 -3.85518 -22.3594
LeftArm  -16.7612 -15.981 -45.3024
LeftForeArm  116.845 -79.7836 -108.491
LeftHand  -0.764446 -4.78491 9.01205
RightShoulder  2.42028 4.39174 24.5605
RightArm  -9.38775 -15.2174 39.1145
RightForeArm  80.4979 79.6631 84.6663
RightHand  -0.191078 7.89593 -2.03872
LeftUpLeg  6.08673 3.80383 3.50162
LeftLeg  -1.03964 35.8721 -1.6127
LeftFoot  -1.9285 0.34209 -4.00421
LeftToes  4.7643e-008 1.47522e-008 1.32869e-009
134
root  -3.23804 40.9001 0.280889 174.731 -66.2134 -175.377
RightUpLeg  0.715835 1.27144 1.31239
RightLeg  -0.836942 -2.22483 0.446129
RightFoot  1.71733 -0.247129 2.26089
RightToes  -3.10678e-008 1.75238e-005 3.56266e-009
Spine  1.32326 -6.48074 -12.4796
Spine1  1.80597 -9.44091 15.0324
HEad  -11.3081 -15.5887 2.46045
LeftShoulder1  2.0509 -3.64469 -22.3813
LeftArm  -16.2777 -16.3485 -45.9629
LeftForeArm  117.73 -79.7451 -109.246
LeftHand  -0.632346 -4.54189 7.68127
RightShoulder  2.1861 3.81359 23.7492
RightArm  -10.0293 -15.486 39.0386
RightForeArm  81.5531 79.6729 85.9184
RightHand  -0.105519 7.91906 -1.29252
LeftUpLeg  6.21597 3.76762 3.26119
LeftLeg  -1.36635 37.7655 -1.81867
LeftFoot  -1.85239 0.328353 -3.79573
LeftToes  4.7643e-008 1.47522e-008 1.32869e-009
135
root  -3.20588 40.8996 0.394393 174.981 -64.4733 -175.553
RightUpLeg  0.419435 1.53796 1.35967
RightLeg  -0.960204 -0.91222 0.24346
RightFoot  1.9819 -0.303622 2.71453
RightToes  -3.10678e-008 1.75238e-005 3.56266e-009
Spine  1.75312 -7.42568 -12.9869
Spine1  1.75729 -10.4853 15.2802
HEad  -11.0226 -16.4167 2.65628
LeftShoulder1  2.011 -3.5374 -22.243
LeftArm  -16.3516 -16.4139 -46.294
LeftForeArm  118.924 -79.6685 -110.452
LeftHand  -0.619094 -3.97775 7.93803
RightShoulder  2.05268 3.45263 23.3666
RightArm  -10.1989 -15.6139 38.9592
RightForeArm  81.8965 79.6691 86.4888
RightHand  -0.197226 7.75269 -2.10831
LeftUpLeg  6.40576 3.76088 3.06607
LeftLeg  -1.83915 39.5055 -2.16008
LeftFoot  -1.80043 0.326578 -3.75895
LeftToes  4.7643e-008 1.47522e-008 1.32869e-009
136
root  -3.16968 40.895 0.502045 175.179 -62.9025 -175.634
RightUpLeg  0.055902 1.85577 1.44851
RightLeg  -1.02524 0.336415 0.0288674
RightFoot  2.27741 -0.345831 3.0248
RightToes  -3.10678e-008 1.75238e-005 3.56266e-009
Spine  2.29791 -8.06127 -13.2166
Spine1  1.40778 -11.1461 15.3172
HEad  -10.7242 -17.4149 2.59738
LeftShoulder1  1.98847 -3.49245 -22.0967
LeftArm  -16.2453 -16.3344 -46.5586
LeftForeArm  118.767 -79.6045 -110.938
LeftHand  -0.629923 -4.02699 8.03573
RightShoulder  2.02363 3.3436 23.4074
RightArm  -10.3005 -15.655 38.4826
RightForeArm  81.442 79.6354 86.8408
RightHand  -0.181692 7.82351 -1.95951
LeftUpLeg  6.44872 3.75131 2.89215
LeftLeg  -2.1487 41.1182 -2.38706
LeftFoot  -1.79425 0.324205 -3.70556
LeftToes  4.7643e-008 1.47522e-008 1.32869e-009
137
root  -3.14392 40.8899 0.593921 175.291 -61.2304 -175.779
RightUpLeg  -0.195595 2.07061 1.50203
RightLeg  -0.970384 1.78541 -0.127968
RightFoot  2.49909 -0.390186 3.35426
RightToes  -3.10678e-008 1.75238e-005 3.56266e-009
Spine  2.63184 -8.18275 -13.4758
Spine1  1.39421 -11.4056 15.8019
HEad  -10.7307 -18.3628 2.32017
LeftShoulder1  1.99976 -3.43416 -22.5204
LeftArm  -16.3993 -16.5241 -46.6
LeftForeArm  117.911 -79.5959 -110.646
LeftHand  -0.655575 -4.41544 8.04149
RightShoulder  1.90699 3.03394 23.0108
RightArm  -10.4907 -15.1281 38.7194
RightForeArm  80.3518 79.6253 85.6654
RightHand  -0.273306 8.15698 -2.71606
LeftUpLeg  6.64553 3.62697 2.62469
LeftLeg  -2.40063 42.927 -2.44355
LeftFoot  -1.70426 0.327043 -3.73337
LeftToes  4.7643e-008 1.47522e-008 1.32869e-009
138
root  -3.13627 40.8776 0.658282 175.433 -59.4955 -175.867
RightUpLeg  -0.557732 2.35409 1.63038
RightLeg  -0.795024 3.23902 -0.286464
RightFoot  2.63108 -0.416434 3.54295
RightToes  -3.10678e-008 1.75238e-005 3.56266e-009
Spine  2.88695 -8.07482 -13.2706
Spine1  1.09031 -11.2478 15.6148
HEad  -10.332 -18.4285 2.9941
LeftShoulder1  1.97542 -3.38153 -22.3798
LeftArm  -16.3007 -16.1732 -46.6443
LeftForeArm  119.291 -79.4695 -112.277
LeftHand  -0.679584 -4.19749 8.4999
RightShoulder  1.92865 3.03912 23.3352
RightArm  -10.6036 -15.0231 38.3648
RightForeArm  81.4736 79.6189 87.3381
RightHand  -0.252295 8.13304 -2.53635
LeftUpLeg  6.76846 3.61555 2.46408
LeftLeg  -2.56628 44.6997 -2.54258
LeftFoot  -1.75815 0.339418 -3.90007
LeftToes  4.7643e-008 1.47522e-008 1.32869e-009
